<svg width="100" height="100" viewBox="0 0 100 100" fill="none" xmlns="http://www.w3.org/2000/svg">
<g clip-path="url(#clip0_1_4)">
<circle cx="50" cy="50" r="50" fill="black"/>
<path d="M33.835 71H28.115C27.675 71 27.4 70.725 27.4 70.285V31.345C27.4 30.905 27.675 30.63 28.115 30.63H34.44C34.825 30.63 35.1 30.795 35.265 31.125L49.235 54.335L63.04 31.125C63.205 30.795 63.48 30.63 63.865 30.63H70.025C70.465 30.63 70.74 30.905 70.74 31.345V70.285C70.74 70.725 70.465 71 70.025 71H64.305C63.865 71 63.59 70.725 63.59 70.285V43.005L51.765 62.805C51.6 63.135 51.325 63.3 50.94 63.3H47.2C46.815 63.3 46.54 63.135 46.375 62.805L34.55 43.28V70.285C34.55 70.725 34.275 71 33.835 71Z" fill="white"/>
</g>
</svg>
